<?xml version="1.0" encoding="UTF-8"?>
<svg width="118px" height="17px" viewBox="0 0 118 17" version="1.1" xmlns="http://www.w3.org/2000/svg" xmlns:xlink="http://www.w3.org/1999/xlink">
    <title>Eligible_Pay_Logo</title>
    <g id="Signin-ðŸ¤" stroke="none" stroke-width="1" fill="none" fill-rule="evenodd">
        <g id="Signin_VAR-B" transform="translate(-116.000000, -50.000000)" fill="#0A111A">
            <g id="Top-Bar" transform="translate(116.000000, 50.000000)">
                <g id="Eligible_Pay_Logo">
                    <path d="M9.33312728,12.9573477 C9.01429739,12.6498661 3.56830645,6.66929088 3.56830645,6.66929088 L5.00480568,5.21244047 C6.34130292,6.15190475 8.45546272,8.39618054 8.45546272,8.39618054 C11.2319887,4.39211114 14.7638238,1.7019302 16.495623,0.524195988 C16.0075729,0.183470664 15.4204491,0 14.8179425,0 L2.87064548,0 C1.28809786,-0.00187987266 0.00324571682,1.23317741 0,2.75939483 L0,14.2406015 C0.00324571682,15.7668189 1.28809786,17.0018762 2.87064548,17 L14.8179425,17 C15.5783495,17.0015003 16.3082323,16.7116252 16.8470244,16.1941383 C17.3858165,15.6766515 17.6893825,14.973943 17.690941,14.2406015 L17.690941,2.75939483 C17.690941,2.12173912 17.4627012,1.53514125 17.0838701,1.06881297 C12.9073162,4.7290929 9.33312728,12.9562131 9.33312728,12.9562131 L9.33312728,12.9573477 Z M26.2652296,16.1093185 L26.2652296,0.536676794 L35.8595386,0.536676794 L35.8595386,3.33578113 L29.7794173,3.33578113 L29.7794173,6.80090665 L35.0030509,6.80090665 L35.0030509,9.60001099 L29.7794173,9.60001099 L29.7794173,13.3102141 L36.1360147,13.3102141 L36.1360147,16.1093185 L26.2652296,16.1093185 L26.2652296,16.1093185 Z M42.8185009,0.536676794 L42.8185009,13.3102141 L48.7833257,13.3102141 L48.7833257,16.1093185 L39.2807833,16.1093185 L39.2807833,0.536676794 L42.8185009,0.536676794 L42.8185009,0.536676794 Z M51.2104329,0.536676794 L54.7481505,0.536676794 L54.7481505,16.1093185 L51.2104329,16.1093185 L51.2104329,0.536676794 Z M70.6531735,2.11379679 L68.387246,4.49082297 C67.787234,3.86905192 66.9307464,3.24728087 65.4283635,3.24728087 C63.3012622,3.24728087 61.4988734,4.37963034 61.4988734,8.06714112 C61.4988734,11.9112293 62.7930168,13.5768495 65.4977766,13.5768495 C65.9836687,13.5768495 66.7001535,13.4883493 67.0236894,13.3544643 L67.0236894,8.08983349 L70.5602305,8.08983349 L70.5602305,14.9542766 C69.3813835,15.7314905 67.7637042,16.3317037 64.7577619,16.3317037 C60.1576701,16.3317037 57.8693892,13.6653498 57.8693892,8.46766152 C57.8693892,2.84676047 61.267104,0.315426147 65.5671898,0.315426147 C68.7578416,0.315426147 70.2143413,1.62591075 70.6531735,2.11379679 L70.6531735,2.11379679 Z M74.0744182,0.536676794 L77.6121358,0.536676794 L77.6121358,16.1093185 L74.0744182,16.1093185 L74.0744182,0.536676794 Z M93.2630362,11.3337084 C93.2630362,13.3544643 92.1994855,16.1093185 86.8134958,16.1093185 L81.4498594,16.1093185 L81.4498594,0.536676794 L87.2523281,0.536676794 C90.1194441,0.536676794 92.4759616,1.44777561 92.4759616,4.58045785 C92.4759616,6.33457836 91.3441744,7.44537007 90.1194441,7.86744823 L90.1194441,7.95594849 C91.6677102,8.13408362 93.2630362,9.1336827 93.2630362,11.3337084 Z M86.8358492,3.33578113 L84.9405173,3.33578113 L84.9405173,6.77934889 L86.6981994,6.77934889 C88.4088217,6.77934889 89.0782468,5.93519258 89.0782468,5.04678613 C89.0782468,4.09143719 88.5017647,3.33578113 86.8358492,3.33578113 L86.8358492,3.33578113 Z M89.6806118,11.4437664 C89.6806118,10.0890316 88.5005882,9.57845323 87.1829149,9.57845323 L84.9405173,9.57845323 L84.9405173,13.3102141 L87.368801,13.3102141 C89.14766,13.3102141 89.6806118,12.3321728 89.6806118,11.4437664 Z M99.9219925,0.536676794 L99.9219925,13.3102141 L105.886817,13.3102141 L105.886817,16.1093185 L96.3854514,16.1093185 L96.3854514,0.536676794 L99.9219925,0.536676794 L99.9219925,0.536676794 Z M108.129215,16.1093185 L108.129215,0.536676794 L117.723524,0.536676794 L117.723524,3.33578113 L111.643403,3.33578113 L111.643403,6.80090665 L116.867036,6.80090665 L116.867036,9.60001099 L111.643403,9.60001099 L111.643403,13.3102141 L118,13.3102141 L118,16.1093185 L108.129215,16.1093185 L108.129215,16.1093185 Z" id="Eligible_logo"/>
                </g>
            </g>
        </g>
    </g>
</svg>